<?xml version="1.0" encoding="utf-8"?>
<!-- Generator: Adobe Illustrator 16.0.0, SVG Export Plug-In . SVG Version: 6.00 Build 0)  -->
<!DOCTYPE svg PUBLIC "-//W3C//DTD SVG 1.1//EN" "http://www.w3.org/Graphics/SVG/1.1/DTD/svg11.dtd">
<svg version="1.1" id="隔离模式" xmlns="http://www.w3.org/2000/svg" xmlns:xlink="http://www.w3.org/1999/xlink" x="0px"
	 y="0px" width="100px" height="32px" viewBox="0 0 100 32" enable-background="new 0 0 100 32" xml:space="preserve">
<path fill="#00A0FF" d="M28.372,3.217L28.372,3.217c-0.6-0.451-1.22-0.854-1.857-1.208c-0.461-0.256-1.04-0.137-1.357,0.285
	l-3.997,5.31l-0.284,0.379c-0.434,0.575-1.125,0.888-1.844,0.855c-0.262-0.012-0.524-0.009-0.785,0.007
	c-2.01,0.127-3.952,1.096-5.258,2.831c-1.049,1.394-1.51,3.047-1.424,4.664c0.015,0.291,0.183,0.557,0.448,0.677
	c0.55,0.25,0.974,0.761,1.079,1.413c0.15,0.923-0.417,1.83-1.313,2.099c-1.057,0.316-2.141-0.331-2.379-1.387
	c-0.129-0.572,0.02-1.142,0.355-1.57c0.186-0.238,0.279-0.534,0.252-0.834c-0.184-2.073,0.369-4.217,1.719-6.01
	c1.702-2.262,4.293-3.459,6.922-3.475c0.506-0.003,0.981-0.245,1.286-0.649l3.681-4.89c0.287-0.383,0.102-0.933-0.357-1.067
	C17.095-1.164,10.195,0.871,6.062,6.253C0.707,13.228,2.008,23.284,8.967,28.66c0.65,0.503,1.328,0.947,2.025,1.334
	c0.459,0.255,1.035,0.13,1.352-0.289l3.996-5.31l0.285-0.378c0.433-0.575,1.124-0.888,1.843-0.855
	c0.263,0.012,0.524,0.01,0.786-0.007c2.008-0.127,3.951-1.097,5.257-2.831c1.05-1.394,1.509-3.048,1.425-4.664
	c-0.016-0.291-0.184-0.557-0.449-0.677c-0.55-0.25-0.973-0.76-1.078-1.413c-0.15-0.923,0.416-1.83,1.313-2.099
	c1.056-0.316,2.141,0.331,2.378,1.388c0.129,0.572-0.019,1.142-0.354,1.57c-0.186,0.237-0.279,0.533-0.253,0.834
	c0.184,2.073-0.368,4.217-1.718,6.01c-1.703,2.262-4.294,3.459-6.922,3.475c-0.507,0.003-0.982,0.245-1.287,0.649l-3.68,4.89
	c-0.286,0.38-0.106,0.932,0.35,1.065c6.212,1.826,13.175-0.253,17.299-5.731C36.847,18.562,35.432,8.531,28.372,3.217"/>
<path fill="#00A0FF" d="M54.78,8.278v-0.38c0-0.274-0.223-0.497-0.498-0.497H41.82c-0.274,0-0.497,0.223-0.497,0.498v0.76
	c0,0.275,0.223,0.498,0.497,0.498h10.573c0.304,0,0.538,0.268,0.492,0.569c-0.297,1.966-1.227,5.643-4.132,9.173
	c-0.205,0.25-0.587,0.245-0.785-0.009c-2.431-3.109-3.179-6.296-3.384-7.47c-0.045-0.257-0.282-0.434-0.542-0.407l-0.397,0.042
	l-0.352,0.037c-0.287,0.03-0.49,0.298-0.438,0.583c0.248,1.347,1.156,5.05,4.01,8.575c0.165,0.205,0.15,0.503-0.043,0.681
	c-3.474,3.186-6.598,3.885-7.715,4.037c-0.25,0.034-0.436,0.245-0.434,0.496l0.003,0.768c0.002,0.295,0.259,0.527,0.552,0.492
	c1.329-0.156,4.875-0.907,8.793-4.51c0.193-0.178,0.488-0.178,0.681,0c1.894,1.753,4.313,3.444,7.577,4.482
	c0.264,0.084,0.547-0.07,0.625-0.336l0.215-0.729c0.077-0.261-0.071-0.533-0.331-0.616c-2.969-0.947-5.158-2.472-6.876-4.035
	c-0.199-0.18-0.209-0.486-0.035-0.69C54.72,14.62,54.78,8.554,54.78,8.278"/>
<path fill="#00A0FF" d="M63.43,6.605h-0.76c-0.275,0-0.498,0.223-0.498,0.497v2.666c0,0.275-0.223,0.498-0.498,0.498h-1.787
	c-0.275,0-0.498,0.223-0.498,0.498v0.76c0,0.274,0.223,0.498,0.498,0.498h1.787c0.275,0,0.498,0.223,0.498,0.498v3.861
	c0,0.275-0.223,0.498-0.498,0.498h-1.787c-0.275,0-0.498,0.223-0.498,0.498v0.76c0,0.275,0.223,0.498,0.498,0.498h1.787
	c0.275,0,0.498,0.223,0.498,0.498v3.651c0,0.792-0.316,2.085-2.338,2.256c-0.262,0.022-0.466,0.234-0.466,0.496v0.757
	c0,0.29,0.247,0.523,0.535,0.498c1.963-0.167,4.024-1.282,4.024-4.007V19.13c0-0.275,0.223-0.498,0.496-0.498h1.59
	c0.275,0,0.498-0.223,0.498-0.498v-0.76c0-0.275-0.223-0.498-0.498-0.498h-1.59c-0.273,0-0.496-0.223-0.496-0.498v-3.861
	c0-0.275,0.223-0.498,0.496-0.498h1.59c0.275,0,0.498-0.223,0.498-0.498v-0.76c0-0.275-0.223-0.498-0.498-0.498h-1.59
	c-0.273,0-0.496-0.223-0.496-0.498V7.103C63.928,6.828,63.706,6.605,63.43,6.605"/>
<path fill="#00A0FF" d="M67.389,26.17c0,0.275,0.223,0.498,0.498,0.498h5.606c2.481,0,4.5-1.924,4.5-4.29V10.594
	c0-0.274-0.223-0.497-0.497-0.497h-9.609c-0.275,0-0.498,0.223-0.498,0.497V26.17z M73.494,24.913h-3.852
	c-0.274,0-0.497-0.223-0.497-0.498v-5.286c0-0.274,0.223-0.497,0.497-0.497h6.099c0.275,0,0.498,0.223,0.498,0.497v3.249
	C76.239,23.776,75.007,24.913,73.494,24.913 M76.239,12.35v4.03c0,0.275-0.223,0.498-0.498,0.498h-6.099
	c-0.274,0-0.497-0.223-0.497-0.498v-4.03c0-0.275,0.223-0.498,0.497-0.498h6.099C76.016,11.852,76.239,12.074,76.239,12.35"/>
<path fill="#00A0FF" d="M75.028,6.592h-4.953c-0.274,0-0.498,0.223-0.498,0.498v0.76c0,0.275,0.224,0.498,0.498,0.498h4.953
	c0.275,0,0.498-0.223,0.498-0.498V7.09C75.526,6.814,75.303,6.592,75.028,6.592"/>
<path fill="#00A0FF" d="M93.961,7.364H83.645c-0.274,0-0.498,0.223-0.498,0.498v0.76c0,0.274,0.224,0.497,0.498,0.497h10.316
	c0.275,0,0.498-0.223,0.498-0.497v-0.76C94.459,7.587,94.237,7.364,93.961,7.364"/>
<path fill="#00A0FF" d="M89.553,16.164h7.187c0.274,0,0.498-0.223,0.498-0.498v-0.76c0-0.275-0.224-0.498-0.498-0.498H80.865
	c-0.274,0-0.497,0.223-0.497,0.498v0.76c0,0.275,0.223,0.498,0.497,0.498h4.913c0.396,0,0.635,0.442,0.414,0.772l-3.27,5.899
	c-0.088,0.132-0.152,0.262-0.198,0.396c-0.274,0.799-0.146,1.657,0.352,2.353c0.521,0.729,1.383,1.165,2.304,1.165h8.961
	c0.402,0,0.771-0.201,0.984-0.538c0.209-0.329,0.234-0.736,0.068-1.089l-2.081-4.033c-0.126-0.244-0.426-0.34-0.67-0.214
	l-0.676,0.349c-0.244,0.126-0.34,0.426-0.214,0.67l1.225,2.374c0.172,0.332-0.068,0.726-0.441,0.726h-7.156
	c-0.361,0-0.681-0.157-0.875-0.43c-0.09-0.124-0.219-0.371-0.143-0.678c0.012-0.051,0.037-0.1,0.066-0.144l3.974-6.96
	C88.659,16.396,89.09,16.164,89.553,16.164"/>
</svg>
